<svg height="512pt" viewBox="0 0 512 512" width="512pt" xmlns="http://www.w3.org/2000/svg" xmlns:xlink="http://www.w3.org/1999/xlink"><linearGradient id="a" gradientUnits="userSpaceOnUse" x1="0" x2="512" y1="256" y2="256"><stop offset="0" stop-color="#00f38d"/><stop offset="1" stop-color="#009eff"/></linearGradient><path d="m512 256c0 141.386719-114.613281 256-256 256s-256-114.613281-256-256 114.613281-256 256-256 256 114.613281 256 256zm0 0" fill="url(#a)"/><g fill="#fff"><path d="m256 435.039062c-98.722656 0-179.039062-80.316406-179.039062-179.039062s80.316406-179.039062 179.039062-179.039062 179.039062 80.316406 179.039062 179.039062-80.316406 179.039062-179.039062 179.039062zm0-328.078124c-82.179688 0-149.039062 66.855468-149.039062 149.039062 0 82.179688 66.859374 149.039062 149.039062 149.039062s149.039062-66.859374 149.039062-149.039062c0-82.183594-66.859374-149.039062-149.039062-149.039062zm0 0"/><path d="m296.941406 266.410156c-2.976562-.03125-5.957031.207032-8.898437.679688-.402344.066406-.808594.121094-1.214844.195312-.492187-.089844-1.085937-.316406-1.753906-.667968-7.929688-4.140626-9.027344-15.078126-2.292969-20.972657.832031-.730469 1.589844-1.316406 2.234375-1.722656 2.425781.46875 4.90625.777344 7.4375.894531 2.824219.140625 5.675781.046875 8.484375-.289062 1.363281-.160156 2.722656-.367188 4.070312-.632813.304688-.0625 3.597657-.683593 3.589844-.84375 22.132813-6.023437 38.460938-26.285156 38.460938-50.300781 0-28.746094-23.386719-52.132812-52.132813-52.132812-28.742187 0-52.128906 23.386718-52.128906 52.132812 0 8.605469 2.109375 16.722656 5.816406 23.886719-.007812.007812-.015625.015625-.027343.023437 1.269531 2.445313 2.738281 4.808594 4.40625 7.0625.335937 1.183594.171874 3.269532-.363282 5.828125-1.527344 7.273438-8.976562 11.683594-16.125 9.628907-1.507812-.433594-2.761718-.886719-3.675781-1.332032-7.195313-20.183594-26.492187-34.671875-49.113281-34.671875-28.746094 0-52.132813 23.386719-52.132813 52.128907 0 28.746093 23.386719 52.132812 52.132813 52.132812 15.917968 0 30.183594-7.179688 39.753906-18.460938.039062.035157.078125.074219.113281.113282 3.367188-4.003906 6.132813-8.519532 8.195313-13.457032.773437-.820312 2.421875-1.671874 4.601562-2.464843 6.738282-2.453125 14.167969 1.023437 16.582032 7.777343.914062 2.550782 1.523437 4.769532 1.6875 6.277344-2.042969 2.742188-3.789063 5.589844-5.203126 8.492188-.152343.308594-.285156.621094-.425781.929687.003907.003907.007813.003907.011719.003907-3.101562 6.667968-4.84375 14.085937-4.84375 21.910156 0 28.746094 23.382812 52.128906 52.128906 52.128906s52.132813-23.382812 52.132813-52.128906c0-28.535156-23.046875-51.777344-51.503907-52.117188-.003906-.011718-.003906-.019531-.003906-.03125-1.953125-.019531 0 .011719 0 0zm-113.230468 13.222656c-13.414063 0-24.328126-10.914062-24.328126-24.328124 0-13.414063 10.914063-24.328126 24.328126-24.328126 4.132812 0 8.027343 1.039063 11.4375 2.863282-.046876.058594-.089844.117187-.136719.175781 3.828125 2.007813 7.175781 5.050781 9.550781 9.027344.960938 1.613281 1.753906 3.394531 2.414062 5.445312.109376.339844.230469.664063.351563.992188.460937 1.867187.710937 3.816406.710937 5.824219 0 13.414062-10.914062 24.328124-24.328124 24.328124zm111.214843-111.214843c13.414063 0 24.328125 10.914062 24.328125 24.328125 0 10.445312-6.617187 19.375-15.882812 22.8125-4.46875 1.660156-9.269532 1.886718-13.914063.886718-6.453125-1.488281-11.9375-5.546874-15.300781-11.039062-.015625-.03125-.035156-.058594-.050781-.089844-.1875-.308594-.371094-.621094-.542969-.9375-.023438-.042968-.046875-.085937-.070312-.128906-1.84375-3.425781-2.894532-7.34375-2.894532-11.503906 0-13.414063 10.914063-24.328125 24.328125-24.328125zm1.390625 174.46875c-13.414062 0-24.328125-10.914063-24.328125-24.328125 0-12.101563 8.878907-22.164063 20.464844-24.019532.09375-.015624.183594-.03125.273437-.042968 1.171876-.175782 2.367188-.265625 3.585938-.265625 13.414062 0 24.328125 10.914062 24.328125 24.328125.003906 13.414062-10.910156 24.328125-24.324219 24.328125zm0 0"/></g></svg>