<?xml version="1.0" encoding="utf-8"?>
<!-- Generator: Adobe Illustrator 24.2.3, SVG Export Plug-In . SVG Version: 6.00 Build 0)  -->
<svg version="1.1" id="Layer_1" xmlns="http://www.w3.org/2000/svg" xmlns:xlink="http://www.w3.org/1999/xlink" x="0px" y="0px"
	 viewBox="0 0 1000 573.18" style="enable-background:new 0 0 1000 573.18;" xml:space="preserve">
<style type="text/css">
	.st0{fill:#5276A5;}
	.st1{fill:#9D9D9D;}
</style>
<g>
	<path class="st0" d="M980.67,543.3c-27.38,0-54.76,0-82.47,0c0-53.17,0-106.05,0-159.24c5.92,0,11.81,0,18.28,0
		c0,47.24,0,94.48,0,142.29c21.77,0,42.98,0,64.18,0C980.67,532,980.67,537.65,980.67,543.3z"/>
	<path class="st0" d="M425.48,312.67c-13.33-1.83-25.3-6.37-36.31-13.27c-19.35-12.13-28.6-29.77-28.59-52.52
		c0.04-73.95,0.01-147.91,0.01-221.86c0-6.39,0.44-6.84,6.77-6.84c34.24,0,68.48-0.56,102.7,0.14
		c47.76,0.98,85.71,19.83,109.07,63.26c9.65,17.95,14.93,37.22,15.77,57.56c0.91,21.99-0.62,43.69-6.92,65.04
		c-8.63,29.25-33.54,50.83-63.89,53.65c-10.21,0.95-20.53,0.66-30.77,1.32c-10.16,0.65-13.39-5.13-14.06-14.01
		c-0.2-2.64-0.02-5.32-0.02-7.97c0-6.05,1.04-7.21,7.17-7.4c5.31-0.17,10.66,0.23,15.95-0.21c18.25-1.52,33.17-9.05,41.12-26.2
		c3.49-7.53,5.92-16.08,6.51-24.33c1.39-19.22,1.06-38.54-4.01-57.36c-5.89-21.84-16.78-40.2-37.78-50.72
		c-9.4-4.7-19.39-7.69-30.15-7.63c-22.1,0.12-44.21,0.1-66.31-0.07c-4.7-0.04-6.41,1.51-6.4,6.35
		c0.13,62.32-0.12,124.64,0.26,186.96c0.11,17.57,3.48,34.68,14.37,49.34C421.71,308.24,423.64,310.42,425.48,312.67z"/>
	<path class="st1" d="M543.09,20.2c27.62,5.4,52.1,16.38,71.66,36.64c20.17,20.9,30.78,46.24,35.76,74.6
		c2.67,15.2,3.41,30.35,2.75,45.59c-0.83,19.12-4.51,37.75-11.39,55.75c-12.3,32.17-34.12,55.34-65.26,69.73
		c-17.64,8.15-36.28,12.8-55.69,13.78c-15.54,0.79-31.14,1.72-46.67,1.2c-13.67-0.46-26.9-3.98-37.87-13.09
		c-11.34-9.42-17.56-21.86-18.74-36.2c-1.3-15.7-1.4-31.53-1.47-47.3c-0.2-46.86-0.08-93.72-0.22-140.57
		c-0.01-4.19,1.18-6.05,5.65-6c16.28,0.17,32.57-0.07,48.85,0.13c12.73,0.15,24.55,3.45,34.97,11.15
		c9.04,6.68,14.69,15.83,20.31,26.14c-1.67,0-2.6,0.29-3.11-0.04c-9.29-6.03-19.69-7.49-30.45-7.62
		c-8.79-0.11-17.58-0.56-26.36-0.37c-1.5,0.03-3.68,2.35-4.22,4.04c-0.72,2.26-0.13,4.93-0.13,7.42
		c0.01,43.37-0.03,86.74,0.06,130.11c0.01,6.84,0.34,14.09,5.74,18.99c3.63,3.3,8.44,6.8,13.03,7.28
		c22.24,2.31,44.42,1.95,65.84-5.84c24.3-8.84,40.59-25.91,50.11-49.56c7.07-17.55,9.54-36.03,10.97-54.87
		c1.26-16.57,0.45-32.93-2.77-48.99c-6.06-30.18-19.58-56.65-42.84-77.47c-4.79-4.29-10.28-7.81-15.42-11.73
		C545.08,22.22,544.12,21.16,543.09,20.2z"/>
	<path class="st0" d="M451.71,562.56c-22.65-4.35-37.54-16.35-39.93-35.37c-0.21-1.64-0.24-3.31-0.24-4.97
		c-0.01-44.69,0.07-89.38-0.12-134.07c-0.02-5.08,1.82-6.12,6.41-6.07c19.77,0.2,39.54-0.15,59.31,0.14
		c39.07,0.58,66.77,21.26,75.7,59.2c4.43,18.8,3.4,37.68-2.66,56.01c-6.53,19.73-22.53,31.17-43.6,31.96
		c-4.64,0.17-9.3,0.14-13.95,0.04c-5.56-0.12-7.37-1.78-8.21-7.22c-0.08-0.49-0.08-0.99-0.12-1.49c-0.6-9-0.42-9.42,8.71-9.16
		c23.06,0.67,34.22-13.42,34.81-34.46c0.36-12.83-0.16-25.55-4.72-37.79c-7.04-18.87-21.78-29.31-41.83-29.37
		c-12.29-0.04-24.59,0.09-36.88-0.07c-3.67-0.05-5.34,0.74-5.33,4.94c0.15,37.71-0.06,75.43,0.19,113.14
		C439.31,540.54,442.22,552.51,451.71,562.56z"/>
	<path class="st1" d="M82.5,425.09c-10.97-6.52-23.01-3.82-34.59-4.48c-0.94-0.05-2.14,1.42-2.88,2.43
		c-0.4,0.54-0.08,1.61-0.08,2.44c0,25.92-0.02,51.83,0.01,77.75c0.02,13.11,3.97,17.93,16.99,17.86
		c10.36-0.05,21.07-0.66,30.99-3.36c18.7-5.1,29.77-18.7,34.71-37.11c6.86-25.53,7.04-50.89-4.05-75.45
		c-6.06-13.42-15.06-24.59-27.64-32.6c-0.55-0.35-1.06-0.79-1.51-1.27c-0.18-0.19-0.14-0.58-0.19-0.88
		c33.12,5.78,58.06,31.85,63.44,64.97c3.34,20.62,2.66,40.77-4.42,60.34c-10.15,28.08-31.02,43.87-59.83,49.8
		c-15.09,3.11-30.36,3.17-45.59,1.77c-16.65-1.53-28.1-13.22-29.24-29.97c-0.73-10.76-0.69-21.58-0.74-32.37
		c-0.11-25.58,0.02-51.17-0.16-76.75c-0.03-4.11,1.09-5.57,5.32-5.4c10.77,0.42,21.6-0.09,32.33,0.76
		C68.74,404.62,77.12,412.97,82.5,425.09z"/>
	<path class="st0" d="M565,464.36c2.15-11.19,3.25-22.72,6.66-33.51c9.7-30.64,35.05-48.69,67.13-50.13
		c49.95-2.24,75.69,34.42,77.73,72.27c0.72,13.35,0.13,26.58-3.55,39.51c-10.35,36.24-40.13,57.49-81.8,53.35
		c-38.26-3.8-61.43-34.4-64.33-69.31c-0.33-3.97-0.48-7.96-0.71-11.94C565.74,464.52,565.37,464.44,565,464.36z M698.16,464.81
		c-1.36-9.37-1.96-17.87-3.9-26.06c-5.57-23.46-21.26-37.44-44.69-40.65c-22.71-3.12-43.99,6.96-54.63,27.6
		c-12.84,24.89-12.82,50.67-0.33,75.67c10.12,20.27,29.85,30.03,52.48,27.74c23.48-2.38,39.1-14.9,46.09-37.26
		C695.96,482.93,696.65,473.35,698.16,464.81z"/>
	<path class="st0" d="M725.48,464.39c2.22-11.34,3.38-23.03,6.88-33.97c9.65-30.17,34.76-48.09,66.43-49.67
		c50.55-2.54,76.22,34.45,78.27,72.19c0.72,13.35,0.15,26.59-3.54,39.51c-10.36,36.32-40.16,57.52-81.77,53.4
		c-38.39-3.8-61.46-34.48-64.37-69.26c-0.33-3.97-0.48-7.96-0.71-11.94C726.27,464.56,725.88,464.48,725.48,464.39z M858.8,464.27
		c-0.25-0.06-0.49-0.12-0.74-0.18c-0.36-4.8-0.52-9.63-1.12-14.4c-1.73-13.6-6.16-25.97-15.42-36.55
		c-18.41-21.05-68.95-25.56-88.02,16.33c-10.27,22.56-10,45.94-0.06,68.64c9.51,21.72,29.05,32.71,53,31.09
		c23.48-1.59,41-15.26,47.51-38.11C856.42,482.4,857.23,473.22,858.8,464.27z"/>
	<path class="st1" d="M345.53,408.06c-9.7-3.03-18.95-6.9-28.58-8.73c-20.69-3.92-40.56-1.96-57.02,13.07
		c-17.84,16.28-22.52,37.29-20.73,60.36c1.19,15.29,5.76,29.32,16.84,40.52c13.89,14.04,31.26,17.56,50.01,15.47
		c6.98-0.78,13.81-3.27,20.59-5.39c1.41-0.44,3.17-2.7,3.19-4.14c0.22-13.62,0.1-27.25,0.05-40.88c0-0.45-0.3-0.9-0.63-1.85
		c-11.12,0-22.34,0-33.8,0c0-5.78,0-11.04,0-16.63c17.62,0,35.13,0,53.22,0c0,2.41,0,4.68,0,6.95c0,20.61,0.07,41.22-0.12,61.82
		c-0.02,1.87-1.3,4.66-2.81,5.44c-23.8,12.26-48.99,16.35-74.8,8.72c-28.53-8.43-44.42-29.09-49.98-57.79
		c-3.07-15.86-2.49-31.79,2.12-47.36c9.67-32.61,38.81-55.28,72.92-56.77c15.39-0.67,30.5,0.82,45.08,6.27
		c3.16,1.18,4.82,2.65,4.53,6.39C345.24,398.59,345.53,403.7,345.53,408.06z"/>
	<path class="st1" d="M181.23,383.9c6.13,0,11.91,0,18.05,0c0,53.02,0,105.89,0,159.1c-5.95,0-11.83,0-18.05,0
		C181.23,490.14,181.23,437.27,181.23,383.9z"/>
	<path class="st1" d="M392.82,543.08c-6.21,0-12.1,0-18.23,0c0-53.01,0-105.77,0-158.93c5.93,0,11.93,0,18.23,0
		C392.82,437,392.82,489.74,392.82,543.08z"/>
</g>
</svg>
